# xmcd
#
# Track frame offsets: 
#        150
#        23673
#        46458
#        66041
#        86152
#        106695
#        125179
#        143996
#        163152
#        177505
#        195378
#        218177
#        237231
#        254337
#        272513
#
# Disc length: 3925 seconds
#
# Revision: 0
# Processed by: cddbd v1.5.2PL0 Copyright (c) Steve Scherf et al.
# Submitted via: ExactAudioCopy v1.0b1
#
DISCID=d90f530f
DTITLE=Brad Paisley - This Is Country Music
DYEAR=2011
DGENRE=Country
TTITLE0=This Is Country Music
TTITLE1=Old Alabama
TTITLE2=A Man Don't Have to Die
TTITLE3=Camouflage
TTITLE4=Remind Me
TTITLE5=Working on a Tan
TTITLE6=Love Her Like She's Leavin'
TTITLE7=One of Those Lives
TTITLE8=Toothbrush
TTITLE9=Be The Lake
TTITLE10=Eastwood
TTITLE11=New Favorite Memory
TTITLE12=Don't Drink The Water
TTITLE13=I Do Now
TTITLE14=Life's Railway to Heaven
EXTD=
EXTT0=
EXTT1=
EXTT2=
EXTT3=
EXTT4=
EXTT5=
EXTT6=
EXTT7=
EXTT8=
EXTT9=
EXTT10=
EXTT11=
EXTT12=
EXTT13=
EXTT14=
PLAYORDER=
